<svg width="1440" height="601" viewBox="0 0 1440 601" fill="none" xmlns="http://www.w3.org/2000/svg">
<rect width="1440" height="601" fill="#FFF9EA"/>
<path d="M0 491.114C0 491.114 22.062 508.43 36.9364 509.966C59.1594 512.261 70.9046 490.218 93.1999 491.114C111.874 491.865 121.363 516.144 140.015 514.841C154.597 513.822 171.797 489.122 176.092 491.114C180.387 493.107 179.528 499.352 176.092 507.945C172.656 516.537 154.319 527.438 140.015 527.983C121.521 528.687 111.703 507.815 93.1999 507.945C70.7762 508.102 59.2967 527.119 36.9364 525.13C22.0601 523.807 0 509.966 0 509.966V491.114Z" fill="#FFAC4B"/>
<path d="M0 528.114C0 528.114 22.062 545.43 36.9364 546.966C59.1594 549.261 70.9046 527.218 93.1999 528.114C111.874 528.865 121.363 553.144 140.015 551.841C154.597 550.822 171.797 526.122 176.092 528.114C180.387 530.107 179.528 536.352 176.092 544.945C172.656 553.537 154.319 564.438 140.015 564.983C121.521 565.687 111.703 544.815 93.1999 544.945C70.7762 545.102 59.2967 564.119 36.9364 562.13C22.0601 560.807 0 546.966 0 546.966V528.114Z" fill="#FFAC4B"/>
<circle cx="754.5" cy="483.5" r="20.5" fill="#FFAC4B"/>
<circle cx="1257" cy="286" r="37" fill="#FFAC4B"/>
<circle cx="863.5" cy="258.5" r="9.5" fill="#FFAC4B"/>
<circle cx="837" cy="79" r="27" fill="#FFAC4B"/>
</svg>
